<mxfile host="app.diagrams.net" modified="2020-11-08T05:43:20.855Z" agent="5.0 (Windows NT 10.0; Win64; x64) AppleWebKit/537.36 (KHTML, like Gecko) Chrome/86.0.4240.183 Safari/537.36" etag="3y8MAAo6kRR1VPydITZv" version="13.9.2" type="github">
  <diagram id="OdSMoFhNrBJ5ylwYfeDp" name="Page-1">
    <mxGraphModel dx="824" dy="450" grid="1" gridSize="10" guides="1" tooltips="1" connect="1" arrows="1" fold="1" page="1" pageScale="1" pageWidth="850" pageHeight="1400" math="0" shadow="0">
      <root>
        <mxCell id="0" />
        <mxCell id="1" parent="0" />
        <mxCell id="aTI20-O60HA79MHgzn83-8" style="edgeStyle=orthogonalEdgeStyle;orthogonalLoop=1;jettySize=auto;html=1;fontSize=21;sketch=1;" edge="1" parent="1" source="aTI20-O60HA79MHgzn83-1" target="aTI20-O60HA79MHgzn83-7">
          <mxGeometry relative="1" as="geometry" />
        </mxCell>
        <mxCell id="aTI20-O60HA79MHgzn83-24" value="" style="edgeStyle=orthogonalEdgeStyle;rounded=0;sketch=1;orthogonalLoop=1;jettySize=auto;html=1;dashed=1;dashPattern=1 4;" edge="1" parent="1" source="aTI20-O60HA79MHgzn83-3" target="aTI20-O60HA79MHgzn83-22">
          <mxGeometry relative="1" as="geometry" />
        </mxCell>
        <mxCell id="aTI20-O60HA79MHgzn83-6" value="Flow Surat Keterangan Tidak Mampu" style="text;html=1;align=center;verticalAlign=middle;resizable=0;points=[];autosize=1;fontSize=21;sketch=1;" vertex="1" parent="1">
          <mxGeometry x="230" y="40" width="360" height="30" as="geometry" />
        </mxCell>
        <mxCell id="aTI20-O60HA79MHgzn83-27" style="edgeStyle=orthogonalEdgeStyle;rounded=0;sketch=1;orthogonalLoop=1;jettySize=auto;html=1;" edge="1" parent="1" source="aTI20-O60HA79MHgzn83-7">
          <mxGeometry relative="1" as="geometry">
            <mxPoint x="355" y="155" as="targetPoint" />
          </mxGeometry>
        </mxCell>
        <mxCell id="aTI20-O60HA79MHgzn83-13" value="Datang" style="text;html=1;align=center;verticalAlign=middle;resizable=0;points=[];autosize=1;fontSize=12;sketch=1;" vertex="1" parent="1">
          <mxGeometry x="140" y="130" width="50" height="20" as="geometry" />
        </mxCell>
        <mxCell id="aTI20-O60HA79MHgzn83-33" value="" style="edgeStyle=orthogonalEdgeStyle;rounded=0;sketch=1;orthogonalLoop=1;jettySize=auto;html=1;" edge="1" parent="1" source="aTI20-O60HA79MHgzn83-52" target="aTI20-O60HA79MHgzn83-37">
          <mxGeometry relative="1" as="geometry">
            <mxPoint x="425" y="155" as="sourcePoint" />
          </mxGeometry>
        </mxCell>
        <mxCell id="aTI20-O60HA79MHgzn83-26" style="edgeStyle=orthogonalEdgeStyle;rounded=0;sketch=1;orthogonalLoop=1;jettySize=auto;html=1;dashed=1;dashPattern=1 4;" edge="1" parent="1" source="aTI20-O60HA79MHgzn83-22" target="aTI20-O60HA79MHgzn83-12">
          <mxGeometry relative="1" as="geometry" />
        </mxCell>
        <mxCell id="aTI20-O60HA79MHgzn83-35" value="" style="edgeStyle=orthogonalEdgeStyle;rounded=0;sketch=1;orthogonalLoop=1;jettySize=auto;html=1;dashed=1;dashPattern=1 4;exitX=0.475;exitY=1.064;exitDx=0;exitDy=0;exitPerimeter=0;" edge="1" parent="1" source="aTI20-O60HA79MHgzn83-28" target="aTI20-O60HA79MHgzn83-34">
          <mxGeometry relative="1" as="geometry">
            <Array as="points">
              <mxPoint x="388" y="283" />
            </Array>
          </mxGeometry>
        </mxCell>
        <mxCell id="aTI20-O60HA79MHgzn83-41" value="" style="group" vertex="1" connectable="0" parent="1">
          <mxGeometry x="520" y="130" width="50" height="70" as="geometry" />
        </mxCell>
        <mxCell id="aTI20-O60HA79MHgzn83-37" value="" style="shape=actor;whiteSpace=wrap;html=1;fillColor=#f5f5f5;strokeColor=#666666;fontColor=#333333;sketch=1;" vertex="1" parent="aTI20-O60HA79MHgzn83-41">
          <mxGeometry x="5" width="40" height="50" as="geometry" />
        </mxCell>
        <mxCell id="aTI20-O60HA79MHgzn83-38" value="Warga" style="text;html=1;align=center;verticalAlign=middle;resizable=0;points=[];autosize=1;sketch=1;" vertex="1" parent="aTI20-O60HA79MHgzn83-41">
          <mxGeometry y="50" width="50" height="20" as="geometry" />
        </mxCell>
        <mxCell id="aTI20-O60HA79MHgzn83-42" value="" style="group" vertex="1" connectable="0" parent="1">
          <mxGeometry x="60" y="130" width="50" height="70" as="geometry" />
        </mxCell>
        <mxCell id="aTI20-O60HA79MHgzn83-1" value="" style="shape=actor;whiteSpace=wrap;html=1;fillColor=#f5f5f5;strokeColor=#666666;fontColor=#333333;sketch=1;" vertex="1" parent="aTI20-O60HA79MHgzn83-42">
          <mxGeometry x="5" width="40" height="50" as="geometry" />
        </mxCell>
        <mxCell id="aTI20-O60HA79MHgzn83-3" value="Warga" style="text;html=1;align=center;verticalAlign=middle;resizable=0;points=[];autosize=1;sketch=1;" vertex="1" parent="aTI20-O60HA79MHgzn83-42">
          <mxGeometry y="50" width="50" height="20" as="geometry" />
        </mxCell>
        <mxCell id="aTI20-O60HA79MHgzn83-45" value="" style="edgeStyle=orthogonalEdgeStyle;rounded=0;sketch=1;orthogonalLoop=1;jettySize=auto;html=1;" edge="1" parent="1" source="aTI20-O60HA79MHgzn83-37">
          <mxGeometry relative="1" as="geometry">
            <mxPoint x="660" y="155" as="targetPoint" />
          </mxGeometry>
        </mxCell>
        <mxCell id="aTI20-O60HA79MHgzn83-48" value="" style="group" vertex="1" connectable="0" parent="1">
          <mxGeometry x="570" y="268.75" width="70" height="70" as="geometry" />
        </mxCell>
        <mxCell id="aTI20-O60HA79MHgzn83-31" value="" style="aspect=fixed;pointerEvents=1;shadow=0;dashed=0;html=1;strokeColor=#6c8ebf;labelPosition=center;verticalLabelPosition=bottom;verticalAlign=top;align=center;fillColor=#dae8fc;shape=mxgraph.azure.user;fontSize=21;sketch=1;gradientColor=#7EA6E0;" vertex="1" parent="aTI20-O60HA79MHgzn83-48">
          <mxGeometry x="11.5" y="-10" width="47" height="50" as="geometry" />
        </mxCell>
        <mxCell id="aTI20-O60HA79MHgzn83-32" value="&lt;font style=&quot;font-size: 12px&quot;&gt;Ketua RW&lt;/font&gt;" style="text;html=1;align=center;verticalAlign=middle;resizable=0;points=[];autosize=1;fontSize=12;strokeWidth=1;sketch=1;" vertex="1" parent="aTI20-O60HA79MHgzn83-48">
          <mxGeometry y="50" width="70" height="20" as="geometry" />
        </mxCell>
        <mxCell id="aTI20-O60HA79MHgzn83-50" style="rounded=0;sketch=1;orthogonalLoop=1;jettySize=auto;html=1;entryX=1;entryY=0.25;entryDx=0;entryDy=0;dashed=1;dashPattern=1 4;exitX=-0.032;exitY=0.575;exitDx=0;exitDy=0;exitPerimeter=0;" edge="1" parent="1" source="aTI20-O60HA79MHgzn83-31" target="aTI20-O60HA79MHgzn83-34">
          <mxGeometry relative="1" as="geometry">
            <mxPoint x="672" y="282" as="sourcePoint" />
          </mxGeometry>
        </mxCell>
        <mxCell id="aTI20-O60HA79MHgzn83-55" value="" style="group" vertex="1" connectable="0" parent="1">
          <mxGeometry x="720" y="240" width="110" height="90" as="geometry" />
        </mxCell>
        <mxCell id="aTI20-O60HA79MHgzn83-44" value="Surat Pengantar RT" style="text;html=1;align=center;verticalAlign=middle;resizable=0;points=[];autosize=1;" vertex="1" parent="aTI20-O60HA79MHgzn83-55">
          <mxGeometry x="-5" y="70" width="120" height="20" as="geometry" />
        </mxCell>
        <mxCell id="aTI20-O60HA79MHgzn83-54" value="" style="shape=image;html=1;verticalAlign=top;verticalLabelPosition=bottom;labelBackgroundColor=#ffffff;imageAspect=0;aspect=fixed;image=https://cdn2.iconfinder.com/data/icons/random-set-1/428/Asset_93-128.png;shadow=0;sketch=1;" vertex="1" parent="aTI20-O60HA79MHgzn83-55">
          <mxGeometry x="14" width="70" height="70" as="geometry" />
        </mxCell>
        <mxCell id="aTI20-O60HA79MHgzn83-56" value="" style="group" vertex="1" connectable="0" parent="1">
          <mxGeometry x="340" y="120" width="110" height="90" as="geometry" />
        </mxCell>
        <mxCell id="aTI20-O60HA79MHgzn83-28" value="Surat Pengantar RT" style="text;html=1;align=center;verticalAlign=middle;resizable=0;points=[];autosize=1;" vertex="1" parent="aTI20-O60HA79MHgzn83-56">
          <mxGeometry x="-10" y="70" width="120" height="20" as="geometry" />
        </mxCell>
        <mxCell id="aTI20-O60HA79MHgzn83-52" value="" style="shape=image;html=1;verticalAlign=top;verticalLabelPosition=bottom;labelBackgroundColor=#ffffff;imageAspect=0;aspect=fixed;image=https://cdn2.iconfinder.com/data/icons/random-set-1/428/Asset_93-128.png;shadow=0;sketch=1;" vertex="1" parent="aTI20-O60HA79MHgzn83-56">
          <mxGeometry x="10" width="70" height="70" as="geometry" />
        </mxCell>
        <mxCell id="aTI20-O60HA79MHgzn83-57" value="" style="group" vertex="1" connectable="0" parent="1">
          <mxGeometry x="400" y="275.5" width="80" height="66.5" as="geometry" />
        </mxCell>
        <mxCell id="aTI20-O60HA79MHgzn83-34" value="" style="shape=image;html=1;verticalAlign=top;verticalLabelPosition=bottom;labelBackgroundColor=#ffffff;imageAspect=0;aspect=fixed;image=https://cdn4.iconfinder.com/data/icons/business-and-finance-colorful-free-hand-drawn-set/102/check-128.png;shadow=0;sketch=0;" vertex="1" parent="aTI20-O60HA79MHgzn83-57">
          <mxGeometry x="16.75" width="46.5" height="46.5" as="geometry" />
        </mxCell>
        <mxCell id="aTI20-O60HA79MHgzn83-36" value="&lt;font style=&quot;font-size: 11px&quot;&gt;Tanda Tangan&lt;/font&gt;" style="text;html=1;align=center;verticalAlign=middle;resizable=0;points=[];autosize=1;" vertex="1" parent="aTI20-O60HA79MHgzn83-57">
          <mxGeometry y="46.5" width="80" height="20" as="geometry" />
        </mxCell>
        <mxCell id="aTI20-O60HA79MHgzn83-58" value="" style="group" vertex="1" connectable="0" parent="1">
          <mxGeometry x="208.5" y="130" width="70" height="70" as="geometry" />
        </mxCell>
        <mxCell id="aTI20-O60HA79MHgzn83-7" value="" style="aspect=fixed;pointerEvents=1;shadow=0;dashed=0;html=1;strokeColor=#b85450;labelPosition=center;verticalLabelPosition=bottom;verticalAlign=top;align=center;fillColor=#f8cecc;shape=mxgraph.azure.user;fontSize=21;gradientColor=#ea6b66;sketch=1;" vertex="1" parent="aTI20-O60HA79MHgzn83-58">
          <mxGeometry x="11.5" width="47" height="50" as="geometry" />
        </mxCell>
        <mxCell id="aTI20-O60HA79MHgzn83-12" value="&lt;font style=&quot;font-size: 12px;&quot;&gt;Ketua RT&lt;/font&gt;" style="text;html=1;align=center;verticalAlign=middle;resizable=0;points=[];autosize=1;fontSize=12;strokeWidth=1;sketch=1;" vertex="1" parent="aTI20-O60HA79MHgzn83-58">
          <mxGeometry y="50" width="70" height="20" as="geometry" />
        </mxCell>
        <mxCell id="aTI20-O60HA79MHgzn83-59" value="" style="group" vertex="1" connectable="0" parent="1">
          <mxGeometry x="65" y="240" width="40" height="65" as="geometry" />
        </mxCell>
        <mxCell id="aTI20-O60HA79MHgzn83-22" value="" style="verticalLabelPosition=bottom;aspect=fixed;html=1;verticalAlign=top;strokeColor=none;align=center;outlineConnect=0;shape=mxgraph.citrix.access_card;sketch=1;" vertex="1" parent="aTI20-O60HA79MHgzn83-59">
          <mxGeometry x="3.3499999999999943" width="33.3" height="45" as="geometry" />
        </mxCell>
        <mxCell id="aTI20-O60HA79MHgzn83-23" value="KTP" style="text;html=1;align=center;verticalAlign=middle;resizable=0;points=[];autosize=1;" vertex="1" parent="aTI20-O60HA79MHgzn83-59">
          <mxGeometry y="45" width="40" height="20" as="geometry" />
        </mxCell>
        <mxCell id="aTI20-O60HA79MHgzn83-66" style="rounded=0;sketch=1;orthogonalLoop=1;jettySize=auto;html=1;entryX=0.5;entryY=0;entryDx=0;entryDy=0;" edge="1" parent="1" target="aTI20-O60HA79MHgzn83-62">
          <mxGeometry relative="1" as="geometry">
            <mxPoint x="605" y="342" as="sourcePoint" />
          </mxGeometry>
        </mxCell>
        <mxCell id="aTI20-O60HA79MHgzn83-72" style="edgeStyle=orthogonalEdgeStyle;rounded=0;sketch=1;orthogonalLoop=1;jettySize=auto;html=1;entryX=1.032;entryY=0.645;entryDx=0;entryDy=0;entryPerimeter=0;exitX=0.5;exitY=1;exitDx=0;exitDy=0;" edge="1" parent="1" source="aTI20-O60HA79MHgzn83-73" target="aTI20-O60HA79MHgzn83-31">
          <mxGeometry relative="1" as="geometry">
            <mxPoint x="695" y="220" as="sourcePoint" />
            <Array as="points">
              <mxPoint x="695" y="291" />
            </Array>
          </mxGeometry>
        </mxCell>
        <mxCell id="aTI20-O60HA79MHgzn83-71" value="" style="group" vertex="1" connectable="0" parent="1">
          <mxGeometry x="530" y="410" width="160" height="90" as="geometry" />
        </mxCell>
        <mxCell id="aTI20-O60HA79MHgzn83-61" value="Surat Pengantar RT &amp;amp; RW" style="text;html=1;align=center;verticalAlign=middle;resizable=0;points=[];autosize=1;" vertex="1" parent="aTI20-O60HA79MHgzn83-71">
          <mxGeometry y="70" width="160" height="20" as="geometry" />
        </mxCell>
        <mxCell id="aTI20-O60HA79MHgzn83-62" value="" style="shape=image;html=1;verticalAlign=top;verticalLabelPosition=bottom;labelBackgroundColor=#ffffff;imageAspect=0;aspect=fixed;image=https://cdn2.iconfinder.com/data/icons/random-set-1/428/Asset_93-128.png;shadow=0;sketch=1;" vertex="1" parent="aTI20-O60HA79MHgzn83-71">
          <mxGeometry x="40" width="70" height="70" as="geometry" />
        </mxCell>
        <mxCell id="aTI20-O60HA79MHgzn83-74" value="" style="group" vertex="1" connectable="0" parent="1">
          <mxGeometry x="670" y="120" width="50" height="80" as="geometry" />
        </mxCell>
        <mxCell id="aTI20-O60HA79MHgzn83-68" value="" style="html=1;verticalLabelPosition=bottom;align=center;labelBackgroundColor=#ffffff;verticalAlign=top;strokeWidth=2;shadow=0;dashed=0;shape=mxgraph.ios7.icons.home;sketch=1;strokeColor=#7EA6E0;" vertex="1" parent="aTI20-O60HA79MHgzn83-74">
          <mxGeometry width="50" height="55.5" as="geometry" />
        </mxCell>
        <mxCell id="aTI20-O60HA79MHgzn83-73" value="&lt;span style=&quot;color: rgb(0, 0, 0); font-family: helvetica; font-size: 12px; font-style: normal; font-weight: 400; letter-spacing: normal; text-indent: 0px; text-transform: none; word-spacing: 0px; background-color: rgb(248, 249, 250); display: inline; float: none;&quot;&gt;RW&lt;/span&gt;" style="text;whiteSpace=wrap;html=1;align=center;verticalAlign=middle;" vertex="1" parent="aTI20-O60HA79MHgzn83-74">
          <mxGeometry y="60" width="50" height="20" as="geometry" />
        </mxCell>
        <mxCell id="aTI20-O60HA79MHgzn83-76" style="edgeStyle=orthogonalEdgeStyle;rounded=0;sketch=1;orthogonalLoop=1;jettySize=auto;html=1;dashed=1;dashPattern=1 4;exitX=0.5;exitY=0;exitDx=0;exitDy=0;" edge="1" parent="1" source="aTI20-O60HA79MHgzn83-37" target="aTI20-O60HA79MHgzn83-54">
          <mxGeometry relative="1" as="geometry">
            <mxPoint x="720" y="100" as="sourcePoint" />
            <Array as="points">
              <mxPoint x="545" y="100" />
              <mxPoint x="769" y="100" />
            </Array>
          </mxGeometry>
        </mxCell>
        <mxCell id="aTI20-O60HA79MHgzn83-77" value="" style="group" vertex="1" connectable="0" parent="1">
          <mxGeometry x="430" y="410" width="50" height="70" as="geometry" />
        </mxCell>
        <mxCell id="aTI20-O60HA79MHgzn83-78" value="" style="shape=actor;whiteSpace=wrap;html=1;fillColor=#f5f5f5;strokeColor=#666666;fontColor=#333333;sketch=1;" vertex="1" parent="aTI20-O60HA79MHgzn83-77">
          <mxGeometry x="5" width="40" height="50" as="geometry" />
        </mxCell>
        <mxCell id="aTI20-O60HA79MHgzn83-79" value="Warga" style="text;html=1;align=center;verticalAlign=middle;resizable=0;points=[];autosize=1;sketch=1;" vertex="1" parent="aTI20-O60HA79MHgzn83-77">
          <mxGeometry y="50" width="50" height="20" as="geometry" />
        </mxCell>
      </root>
    </mxGraphModel>
  </diagram>
</mxfile>
